<svg xmlns="http://www.w3.org/2000/svg" xmlns:xlink="http://www.w3.org/1999/xlink" width="322" zoomAndPan="magnify" viewBox="0 0 241.5 241.499991" height="322" preserveAspectRatio="xMidYMid meet" version="1.0"><defs><clipPath id="8d4096f104"><path d="M 31.796875 128 L 101 128 L 101 213.546875 L 31.796875 213.546875 Z M 31.796875 128 " clip-rule="nonzero"/></clipPath><clipPath id="3dd2c22ce7"><path d="M 138 29.046875 L 210.296875 29.046875 L 210.296875 101 L 138 101 Z M 138 29.046875 " clip-rule="nonzero"/></clipPath></defs><g clip-path="url(#8d4096f104)"><path fill="#ffffff" d="M 92.25 128.398438 L 39.6875 128.398438 C 35.351562 128.398438 31.839844 131.921875 31.839844 136.269531 L 31.839844 205.675781 C 31.839844 210.023438 35.351562 213.546875 39.6875 213.546875 L 92.25 213.546875 C 96.589844 213.546875 100.101562 210.023438 100.101562 205.675781 L 100.101562 136.269531 C 100.101562 131.921875 96.578125 128.398438 92.25 128.398438 Z M 58.746094 201.824219 L 55.695312 201.824219 L 55.695312 204.882812 C 55.695312 206.917969 54.054688 208.574219 52.011719 208.574219 C 49.972656 208.574219 48.328125 206.929688 48.328125 204.882812 L 48.328125 201.824219 L 45.28125 201.824219 C 43.25 201.824219 41.597656 200.179688 41.597656 198.132812 C 41.597656 196.085938 43.238281 194.441406 45.28125 194.441406 L 48.328125 194.441406 L 48.328125 191.382812 C 48.328125 189.347656 49.972656 187.691406 52.011719 187.691406 C 54.054688 187.691406 55.695312 189.335938 55.695312 191.382812 L 55.695312 194.441406 L 58.746094 194.441406 C 60.773438 194.441406 62.425781 196.085938 62.425781 198.132812 C 62.425781 200.179688 60.773438 201.824219 58.746094 201.824219 Z M 44.660156 168.804688 C 43.226562 167.367188 43.226562 165.027344 44.660156 163.589844 C 46.09375 162.152344 48.425781 162.152344 49.863281 163.589844 L 52.023438 165.757812 L 54.1875 163.589844 C 55.621094 162.152344 57.957031 162.152344 59.390625 163.589844 C 60.824219 165.027344 60.824219 167.367188 59.390625 168.804688 L 57.226562 170.972656 L 59.390625 173.140625 C 60.824219 174.578125 60.824219 176.917969 59.390625 178.355469 C 58.671875 179.074219 57.722656 179.441406 56.789062 179.441406 C 55.851562 179.441406 54.90625 179.074219 54.1875 178.355469 L 52.023438 176.1875 L 49.863281 178.355469 C 49.144531 179.074219 48.195312 179.441406 47.261719 179.441406 C 46.324219 179.441406 45.375 179.074219 44.660156 178.355469 C 43.226562 176.917969 43.226562 174.578125 44.660156 173.140625 L 46.824219 170.972656 Z M 86.964844 201.824219 L 73.5 201.824219 C 71.46875 201.824219 69.816406 200.179688 69.816406 198.132812 C 69.816406 196.085938 71.457031 194.441406 73.5 194.441406 L 86.953125 194.441406 C 88.980469 194.441406 90.632812 196.085938 90.632812 198.132812 C 90.632812 200.179688 88.992188 201.824219 86.964844 201.824219 Z M 86.964844 179.636719 L 73.5 179.636719 C 71.46875 179.636719 69.816406 177.992188 69.816406 175.945312 C 69.816406 173.898438 71.457031 172.253906 73.5 172.253906 L 86.953125 172.253906 C 88.980469 172.253906 90.632812 173.898438 90.632812 175.945312 C 90.632812 177.992188 88.992188 179.636719 86.964844 179.636719 Z M 86.964844 169.304688 L 73.5 169.304688 C 71.46875 169.304688 69.816406 167.660156 69.816406 165.613281 C 69.816406 163.566406 71.457031 161.917969 73.5 161.917969 L 86.953125 161.917969 C 88.980469 161.917969 90.632812 163.566406 90.632812 165.613281 C 90.632812 167.660156 88.992188 169.304688 86.964844 169.304688 Z M 92.25 151.855469 L 39.6875 151.855469 L 39.6875 136.429688 L 92.25 136.429688 Z M 92.25 151.855469 " fill-opacity="1" fill-rule="nonzero"/></g><g clip-path="url(#3dd2c22ce7)"><path fill="#ffffff" d="M 174.613281 100.519531 C 165.082031 100.519531 156.140625 96.804688 149.40625 90.054688 C 142.671875 83.304688 138.96875 74.324219 138.96875 64.785156 C 138.96875 55.242188 142.671875 46.261719 149.40625 39.511719 C 156.140625 32.761719 165.097656 29.046875 174.613281 29.046875 C 184.140625 29.046875 193.085938 32.761719 199.816406 39.511719 C 206.550781 46.261719 210.257812 55.242188 210.257812 64.785156 C 210.257812 74.324219 206.550781 83.304688 199.816406 90.054688 C 193.097656 96.804688 184.140625 100.519531 174.613281 100.519531 Z M 174.613281 36.273438 C 158.933594 36.273438 146.171875 49.066406 146.171875 64.785156 C 146.171875 80.503906 158.933594 93.296875 174.613281 93.296875 C 190.289062 93.296875 203.050781 80.503906 203.050781 64.785156 C 203.050781 49.066406 190.300781 36.273438 174.613281 36.273438 Z M 174.613281 36.273438 " fill-opacity="1" fill-rule="nonzero"/></g><path fill="#ffffff" d="M 173.140625 88.019531 L 173.140625 82.609375 C 169.640625 82.5 166.140625 81.5 164.136719 80.160156 L 165.628906 74.921875 C 167.792969 76.199219 170.90625 77.371094 174.296875 77.371094 C 177.796875 77.371094 180.191406 75.640625 180.191406 72.972656 C 180.191406 70.460938 178.246094 68.855469 174.136719 67.34375 C 168.304688 65.222656 164.523438 62.554688 164.523438 57.375 C 164.523438 52.585938 167.855469 48.90625 173.46875 47.90625 L 173.46875 42.449219 L 178.027344 42.449219 L 178.027344 47.628906 C 181.527344 47.738281 183.921875 48.578125 185.695312 49.46875 L 184.199219 54.597656 C 182.863281 53.988281 180.421875 52.707031 176.640625 52.707031 C 172.753906 52.707031 171.367188 54.71875 171.367188 56.609375 C 171.367188 58.886719 173.371094 60.179688 178.085938 62.066406 C 184.308594 64.40625 187.09375 67.414062 187.09375 72.375 C 187.09375 77.113281 183.8125 81.292969 177.699219 82.292969 L 177.699219 88.03125 L 173.140625 88.03125 Z M 173.140625 88.019531 " fill-opacity="1" fill-rule="nonzero"/><path fill="#ffffff" d="M 73.21875 87.03125 C 71.664062 87.03125 70.410156 88.300781 70.410156 89.847656 L 70.410156 107.6875 L 76.039062 107.6875 L 76.039062 89.847656 C 76.027344 88.300781 74.773438 87.03125 73.21875 87.03125 Z M 73.21875 87.03125 " fill-opacity="1" fill-rule="nonzero"/><path fill="#ffffff" d="M 88.277344 80.585938 C 86.722656 80.585938 85.46875 81.855469 85.46875 83.402344 L 85.46875 107.6875 L 91.097656 107.6875 L 91.097656 83.414062 C 91.097656 81.855469 89.832031 80.585938 88.277344 80.585938 Z M 88.277344 80.585938 " fill-opacity="1" fill-rule="nonzero"/><path fill="#ffffff" d="M 103.347656 73.351562 C 101.789062 73.351562 100.539062 74.617188 100.539062 76.164062 L 100.539062 107.6875 L 106.167969 107.6875 L 106.167969 76.164062 C 106.152344 74.617188 104.890625 73.351562 103.347656 73.351562 Z M 103.347656 73.351562 " fill-opacity="1" fill-rule="nonzero"/><path fill="#ffffff" d="M 118.402344 64.199219 C 116.847656 64.199219 115.597656 65.464844 115.597656 67.011719 L 115.597656 107.6875 L 121.222656 107.6875 L 121.222656 67.027344 C 121.210938 65.464844 119.960938 64.199219 118.402344 64.199219 Z M 118.402344 64.199219 " fill-opacity="1" fill-rule="nonzero"/><path fill="#ffffff" d="M 164.671875 205.359375 L 109.386719 205.359375 L 109.386719 195.378906 L 164.671875 195.378906 C 169.082031 195.378906 172.679688 191.785156 172.679688 187.347656 L 172.679688 108.148438 L 182.632812 108.148438 L 182.632812 187.347656 C 182.621094 197.28125 174.574219 205.359375 164.671875 205.359375 Z M 164.671875 205.359375 " fill-opacity="1" fill-rule="nonzero"/><path fill="#ffffff" d="M 52.195312 120.371094 L 42.242188 120.371094 L 42.242188 53.378906 C 42.242188 43.449219 50.300781 35.382812 60.191406 35.382812 L 135.34375 35.382812 L 135.34375 45.363281 L 60.203125 45.363281 C 55.792969 45.363281 52.195312 48.957031 52.195312 53.390625 Z M 52.195312 120.371094 " fill-opacity="1" fill-rule="nonzero"/><path fill="#ffffff" d="M 157.378906 136.285156 L 115.597656 136.285156 C 114.285156 136.285156 113.226562 135.222656 113.226562 133.90625 C 113.226562 132.589844 114.285156 131.53125 115.597656 131.53125 L 157.378906 131.53125 C 158.691406 131.53125 159.75 132.589844 159.75 133.90625 C 159.75 135.222656 158.679688 136.285156 157.378906 136.285156 Z M 157.378906 136.285156 " fill-opacity="1" fill-rule="nonzero"/><path fill="#ffffff" d="M 157.378906 148.96875 L 115.597656 148.96875 C 114.285156 148.96875 113.226562 147.90625 113.226562 146.589844 C 113.226562 145.277344 114.285156 144.214844 115.597656 144.214844 L 157.378906 144.214844 C 158.691406 144.214844 159.75 145.277344 159.75 146.589844 C 159.75 147.90625 158.679688 148.96875 157.378906 148.96875 Z M 157.378906 148.96875 " fill-opacity="1" fill-rule="nonzero"/><path fill="#ffffff" d="M 157.378906 161.664062 L 115.597656 161.664062 C 114.285156 161.664062 113.226562 160.605469 113.226562 159.289062 C 113.226562 157.972656 114.285156 156.910156 115.597656 156.910156 L 157.378906 156.910156 C 158.691406 156.910156 159.75 157.972656 159.75 159.289062 C 159.75 160.605469 158.679688 161.664062 157.378906 161.664062 Z M 157.378906 161.664062 " fill-opacity="1" fill-rule="nonzero"/><path fill="#ffffff" d="M 157.378906 174.347656 L 115.597656 174.347656 C 114.285156 174.347656 113.226562 173.289062 113.226562 171.972656 C 113.226562 170.65625 114.285156 169.597656 115.597656 169.597656 L 157.378906 169.597656 C 158.691406 169.597656 159.75 170.65625 159.75 171.972656 C 159.75 173.289062 158.679688 174.347656 157.378906 174.347656 Z M 157.378906 174.347656 " fill-opacity="1" fill-rule="nonzero"/></svg>