<svg xmlns="http://www.w3.org/2000/svg" xmlns:xlink="http://www.w3.org/1999/xlink" width="322" zoomAndPan="magnify" viewBox="0 0 241.5 241.499991" height="322" preserveAspectRatio="xMidYMid meet" version="1.0"><defs><clipPath id="3469c42dd5"><path d="M 67 30.355469 L 171 30.355469 L 171 155 L 67 155 Z M 67 30.355469 " clip-rule="nonzero"/></clipPath><clipPath id="eb64d154f4"><path d="M 45 30.355469 L 65 30.355469 L 65 50 L 45 50 Z M 45 30.355469 " clip-rule="nonzero"/></clipPath><clipPath id="d73f529fb6"><path d="M 74 204 L 168 204 L 168 211.105469 L 74 211.105469 Z M 74 204 " clip-rule="nonzero"/></clipPath><clipPath id="c247711dce"><path d="M 39.734375 67 L 201.734375 67 L 201.734375 180 L 39.734375 180 Z M 39.734375 67 " clip-rule="nonzero"/></clipPath></defs><path fill="#ffffff" d="M 170.578125 154.996094 L 170.578125 146.601562 C 168.292969 149.863281 165.445312 152.710938 162.183594 154.996094 L 170.578125 154.996094 " fill-opacity="1" fill-rule="nonzero"/><g clip-path="url(#3469c42dd5)"><path fill="#ffffff" d="M 77.117188 142.535156 L 102.039062 142.535156 L 102.039062 148.765625 L 77.117188 148.765625 Z M 77.117188 130.074219 L 102.039062 130.074219 L 102.039062 136.304688 L 77.117188 136.304688 Z M 77.117188 117.613281 L 102.039062 117.613281 L 102.039062 123.84375 L 77.117188 123.84375 Z M 77.117188 105.152344 L 102.039062 105.152344 L 102.039062 111.382812 L 77.117188 111.382812 Z M 77.117188 92.691406 L 102.039062 92.691406 L 102.039062 98.921875 L 77.117188 98.921875 Z M 77.117188 61.539062 L 83.347656 61.539062 L 83.347656 67.769531 L 77.117188 67.769531 Z M 77.117188 49.078125 L 83.347656 49.078125 L 83.347656 55.308594 L 77.117188 55.308594 Z M 77.117188 36.617188 L 83.347656 36.617188 L 83.347656 42.847656 L 77.117188 42.847656 Z M 95.808594 61.539062 L 114.503906 61.539062 L 114.503906 80.230469 L 120.734375 80.230469 L 120.734375 49.078125 L 139.425781 49.078125 L 139.425781 80.230469 L 145.65625 80.230469 L 145.65625 36.617188 L 164.347656 36.617188 L 164.347656 86.460938 L 95.808594 86.460938 Z M 70.886719 154.996094 L 122.898438 154.996094 C 114.0625 148.792969 108.273438 138.546875 108.273438 126.960938 C 108.273438 108.0625 123.640625 92.691406 142.539062 92.691406 C 154.125 92.691406 164.371094 98.484375 170.578125 107.320312 L 170.578125 39.734375 C 170.578125 34.574219 166.394531 30.386719 161.234375 30.386719 L 67.699219 30.386719 C 69.671875 33.003906 70.886719 36.21875 70.886719 39.734375 L 70.886719 154.996094 " fill-opacity="1" fill-rule="nonzero"/></g><path fill="#ffffff" d="M 161.234375 130.074219 C 159.515625 130.074219 158.117188 128.675781 158.117188 126.960938 C 158.117188 125.246094 159.515625 123.84375 161.234375 123.84375 C 162.949219 123.84375 164.347656 125.246094 164.347656 126.960938 C 164.347656 128.675781 162.949219 130.074219 161.234375 130.074219 Z M 142.539062 123.84375 C 147.699219 123.84375 151.886719 128.03125 151.886719 133.191406 L 151.886719 142.535156 L 145.65625 142.535156 L 145.65625 148.765625 L 139.425781 148.765625 L 139.425781 141.964844 C 135.8125 140.675781 133.195312 137.242188 133.195312 133.191406 L 139.425781 133.191406 C 139.425781 134.90625 140.824219 136.304688 142.539062 136.304688 L 145.65625 136.304688 L 145.65625 133.191406 C 145.65625 131.476562 144.257812 130.074219 142.539062 130.074219 C 137.382812 130.074219 133.195312 125.890625 133.195312 120.730469 L 133.195312 111.382812 L 139.425781 111.382812 L 139.425781 105.152344 L 145.65625 105.152344 L 145.65625 111.957031 C 149.269531 113.246094 151.886719 116.675781 151.886719 120.730469 L 145.65625 120.730469 C 145.65625 119.015625 144.257812 117.613281 142.539062 117.613281 L 139.425781 117.613281 L 139.425781 120.730469 C 139.425781 122.445312 140.824219 123.84375 142.539062 123.84375 Z M 123.847656 130.074219 C 122.132812 130.074219 120.734375 128.675781 120.734375 126.960938 C 120.734375 125.246094 122.132812 123.84375 123.847656 123.84375 C 125.566406 123.84375 126.964844 125.246094 126.964844 126.960938 C 126.964844 128.675781 125.566406 130.074219 123.847656 130.074219 Z M 142.539062 98.921875 C 127.085938 98.921875 114.503906 111.503906 114.503906 126.960938 C 114.503906 142.414062 127.085938 154.996094 142.539062 154.996094 C 157.996094 154.996094 170.578125 142.414062 170.578125 126.960938 C 170.578125 111.503906 157.996094 98.921875 142.539062 98.921875 " fill-opacity="1" fill-rule="nonzero"/><path fill="#ffffff" d="M 102.039062 80.230469 L 108.273438 80.230469 L 108.273438 67.769531 L 102.039062 67.769531 L 102.039062 80.230469 " fill-opacity="1" fill-rule="nonzero"/><path fill="#ffffff" d="M 189.273438 80.230469 L 176.808594 80.230469 L 176.808594 154.996094 L 189.273438 154.996094 L 189.273438 80.230469 " fill-opacity="1" fill-rule="nonzero"/><path fill="#ffffff" d="M 126.964844 80.230469 L 133.195312 80.230469 L 133.195312 55.308594 L 126.964844 55.308594 L 126.964844 80.230469 " fill-opacity="1" fill-rule="nonzero"/><g clip-path="url(#eb64d154f4)"><path fill="#ffffff" d="M 64.65625 39.734375 C 64.65625 34.574219 60.46875 30.386719 55.308594 30.386719 C 50.148438 30.386719 45.964844 34.574219 45.964844 39.734375 L 45.964844 49.078125 L 64.65625 49.078125 L 64.65625 39.734375 " fill-opacity="1" fill-rule="nonzero"/></g><path fill="#ffffff" d="M 151.886719 80.230469 L 158.117188 80.230469 L 158.117188 42.847656 L 151.886719 42.847656 L 151.886719 80.230469 " fill-opacity="1" fill-rule="nonzero"/><g clip-path="url(#d73f529fb6)"><path fill="#ffffff" d="M 164.347656 204.839844 L 77.117188 204.839844 C 75.402344 204.839844 74.003906 206.242188 74.003906 207.957031 C 74.003906 209.671875 75.402344 211.070312 77.117188 211.070312 L 164.347656 211.070312 C 166.066406 211.070312 167.464844 209.671875 167.464844 207.957031 C 167.464844 206.242188 166.066406 204.839844 164.347656 204.839844 " fill-opacity="1" fill-rule="nonzero"/></g><g clip-path="url(#c247711dce)"><path fill="#ffffff" d="M 83.347656 173.6875 L 77.117188 173.6875 L 77.117188 167.457031 L 83.347656 167.457031 Z M 70.886719 173.6875 L 64.65625 173.6875 L 64.65625 167.457031 L 70.886719 167.457031 Z M 58.425781 173.6875 L 52.195312 173.6875 L 52.195312 167.457031 L 58.425781 167.457031 Z M 192.386719 67.769531 L 176.808594 67.769531 L 176.808594 74 L 189.273438 74 C 192.703125 74 195.503906 76.800781 195.503906 80.230469 L 195.503906 154.996094 C 195.503906 158.429688 192.703125 161.226562 189.273438 161.226562 L 52.195312 161.226562 C 48.761719 161.226562 45.964844 158.429688 45.964844 154.996094 L 45.964844 80.230469 C 45.964844 76.800781 48.761719 74 52.195312 74 L 64.65625 74 L 64.65625 67.769531 L 49.078125 67.769531 C 43.917969 67.769531 39.734375 71.957031 39.734375 77.117188 L 39.734375 170.574219 C 39.734375 175.734375 43.917969 179.917969 49.078125 179.917969 L 152.460938 179.917969 C 152.117188 178.933594 151.886719 177.898438 151.886719 176.804688 C 151.886719 171.644531 156.074219 167.457031 161.234375 167.457031 L 179.925781 167.457031 C 185.085938 167.457031 189.273438 171.644531 189.273438 176.804688 C 189.273438 177.898438 189.039062 178.933594 188.699219 179.917969 L 192.386719 179.917969 C 197.546875 179.917969 201.734375 175.734375 201.734375 170.574219 L 201.734375 77.117188 C 201.734375 71.957031 197.546875 67.769531 192.386719 67.769531 " fill-opacity="1" fill-rule="nonzero"/></g><path fill="#ffffff" d="M 52.195312 154.996094 L 64.65625 154.996094 L 64.65625 80.230469 L 52.195312 80.230469 L 52.195312 154.996094 " fill-opacity="1" fill-rule="nonzero"/><path fill="#ffffff" d="M 179.925781 173.6875 L 161.234375 173.6875 C 159.515625 173.6875 158.117188 175.089844 158.117188 176.804688 C 158.117188 178.519531 159.515625 179.917969 161.234375 179.917969 L 179.925781 179.917969 C 181.640625 179.917969 183.039062 178.519531 183.039062 176.804688 C 183.039062 175.089844 181.640625 173.6875 179.925781 173.6875 " fill-opacity="1" fill-rule="nonzero"/><path fill="#ffffff" d="M 100.847656 186.148438 L 94.617188 198.609375 L 146.847656 198.609375 L 140.617188 186.148438 L 100.847656 186.148438 " fill-opacity="1" fill-rule="nonzero"/></svg>