<svg xmlns="http://www.w3.org/2000/svg" xmlns:xlink="http://www.w3.org/1999/xlink" width="322" zoomAndPan="magnify" viewBox="0 0 241.5 241.499991" height="322" preserveAspectRatio="xMidYMid meet" version="1.0"><defs><clipPath id="8adbcd0629"><path d="M 182 112 L 222.199219 112 L 222.199219 203 L 182 203 Z M 182 112 " clip-rule="nonzero"/></clipPath><clipPath id="1b2c3953d4"><path d="M 109.699219 101.449219 L 178 101.449219 L 178 213.949219 L 109.699219 213.949219 Z M 109.699219 101.449219 " clip-rule="nonzero"/></clipPath><clipPath id="f03fced61d"><path d="M 31.582031 57.90625 L 97.582031 57.90625 L 97.582031 123.90625 L 31.582031 123.90625 Z M 31.582031 57.90625 " clip-rule="nonzero"/></clipPath><clipPath id="47ab7d8609"><path d="M 109.699219 27.863281 L 171.199219 27.863281 L 171.199219 89.363281 L 109.699219 89.363281 Z M 109.699219 27.863281 " clip-rule="nonzero"/></clipPath></defs><g clip-path="url(#8adbcd0629)"><path fill="#ffffff" d="M 210.949219 112.699219 L 182.824219 112.699219 L 182.824219 129.574219 L 194.074219 129.574219 L 194.074219 135.199219 L 182.824219 135.199219 L 182.824219 146.449219 L 194.074219 146.449219 L 194.074219 152.074219 L 182.824219 152.074219 L 182.824219 163.324219 L 194.074219 163.324219 L 194.074219 168.949219 L 182.824219 168.949219 L 182.824219 180.199219 L 194.074219 180.199219 L 194.074219 185.824219 L 182.824219 185.824219 L 182.824219 202.699219 L 210.949219 202.699219 C 217.167969 202.699219 222.199219 197.667969 222.199219 191.449219 L 222.199219 123.949219 C 222.199219 117.734375 217.167969 112.699219 210.949219 112.699219 Z M 210.949219 185.824219 L 199.699219 185.824219 L 199.699219 180.199219 L 210.949219 180.199219 Z M 210.949219 168.949219 L 199.699219 168.949219 L 199.699219 163.324219 L 210.949219 163.324219 Z M 210.949219 152.074219 L 199.699219 152.074219 L 199.699219 146.449219 L 210.949219 146.449219 Z M 210.949219 135.199219 L 199.699219 135.199219 L 199.699219 129.574219 L 210.949219 129.574219 Z M 210.949219 135.199219 " fill-opacity="1" fill-rule="nonzero"/></g><g clip-path="url(#1b2c3953d4)"><path fill="#ffffff" d="M 109.699219 112.699219 L 109.699219 202.699219 L 177.199219 213.949219 L 177.199219 101.449219 Z M 148.980469 180.199219 L 141.671875 165.53125 C 141.398438 165.011719 141.070312 163.972656 140.800781 162.527344 L 140.695312 162.527344 C 140.53125 163.21875 140.207031 164.257812 139.710938 165.648438 L 132.347656 180.199219 L 120.949219 180.199219 L 134.472656 157.671875 L 122.097656 135.199219 L 133.769531 135.199219 L 139.824219 148.660156 C 140.3125 149.757812 140.695312 151.03125 141.078125 152.476562 L 141.238281 152.476562 C 141.460938 151.609375 141.894531 150.28125 142.550781 148.550781 L 149.3125 135.199219 L 159.949219 135.199219 L 147.242188 157.5 L 160.324219 180.199219 Z M 148.980469 180.199219 " fill-opacity="1" fill-rule="nonzero"/></g><g clip-path="url(#f03fced61d)"><path fill="#ffffff" d="M 64.582031 57.90625 C 46.367188 57.90625 31.582031 72.695312 31.582031 90.90625 C 31.582031 109.121094 46.367188 123.90625 64.582031 123.90625 C 82.792969 123.90625 97.582031 109.121094 97.582031 90.90625 C 97.582031 72.695312 82.792969 57.90625 64.582031 57.90625 Z M 64.582031 60.183594 C 81.5625 60.183594 95.304688 73.925781 95.304688 90.90625 C 95.304688 107.890625 81.5625 121.632812 64.582031 121.632812 C 47.597656 121.632812 33.855469 107.890625 33.855469 90.90625 C 33.855469 73.925781 47.597656 60.183594 64.582031 60.183594 Z M 61.214844 63.824219 C 61.148438 63.824219 61.082031 63.828125 61.019531 63.835938 C 60.210938 63.941406 59.421875 64.085938 58.644531 64.257812 C 58.492188 64.285156 58.351562 64.34375 58.222656 64.425781 C 58.09375 64.511719 57.984375 64.621094 57.898438 64.75 C 57.816406 64.878906 57.757812 65.015625 57.730469 65.167969 C 57.703125 65.320312 57.703125 65.472656 57.738281 65.625 C 57.769531 65.773438 57.832031 65.914062 57.921875 66.039062 C 58.011719 66.164062 58.125 66.269531 58.253906 66.347656 C 58.386719 66.429688 58.53125 66.480469 58.683594 66.503906 C 58.835938 66.527344 58.988281 66.515625 59.136719 66.476562 C 59.855469 66.316406 60.582031 66.1875 61.3125 66.09375 C 61.613281 66.0625 61.859375 65.929688 62.054688 65.703125 C 62.25 65.476562 62.339844 65.210938 62.328125 64.910156 C 62.3125 64.613281 62.199219 64.359375 61.984375 64.148438 C 61.769531 63.9375 61.511719 63.832031 61.214844 63.824219 Z M 54.296875 65.730469 C 54.15625 65.738281 54.023438 65.769531 53.890625 65.828125 C 49.066406 67.886719 44.949219 71.277344 42.019531 75.558594 C 41.933594 75.683594 41.875 75.820312 41.84375 75.96875 C 41.8125 76.117188 41.8125 76.265625 41.839844 76.414062 C 41.867188 76.5625 41.921875 76.699219 42.003906 76.824219 C 42.089844 76.949219 42.191406 77.058594 42.316406 77.140625 C 42.441406 77.226562 42.578125 77.285156 42.726562 77.316406 C 42.875 77.347656 43.023438 77.347656 43.171875 77.320312 C 43.320312 77.292969 43.457031 77.238281 43.582031 77.15625 C 43.707031 77.074219 43.8125 76.96875 43.898438 76.84375 C 46.582031 72.921875 50.359375 69.808594 54.785156 67.921875 C 55.042969 67.816406 55.234375 67.640625 55.363281 67.394531 C 55.488281 67.148438 55.523438 66.890625 55.464844 66.621094 C 55.402344 66.351562 55.261719 66.132812 55.042969 65.964844 C 54.824219 65.796875 54.574219 65.71875 54.296875 65.730469 Z M 66.855469 68.148438 C 66.707031 68.148438 66.558594 68.179688 66.421875 68.234375 C 66.28125 68.292969 66.15625 68.375 66.050781 68.484375 C 65.945312 68.589844 65.863281 68.710938 65.804688 68.851562 C 65.746094 68.992188 65.71875 69.136719 65.71875 69.289062 L 65.71875 103.425781 C 65.71875 103.574219 65.746094 103.722656 65.804688 103.859375 C 65.863281 104 65.945312 104.125 66.050781 104.230469 C 66.15625 104.335938 66.28125 104.417969 66.421875 104.476562 C 66.558594 104.535156 66.707031 104.5625 66.855469 104.5625 L 75.960938 104.5625 C 83.476562 104.5625 89.613281 98.425781 89.613281 90.90625 C 89.613281 83.390625 83.476562 77.253906 75.960938 77.253906 C 75.808594 77.253906 75.664062 77.28125 75.523438 77.339844 C 75.382812 77.398438 75.261719 77.480469 75.15625 77.585938 C 75.046875 77.691406 74.964844 77.816406 74.90625 77.957031 C 74.851562 78.09375 74.820312 78.238281 74.820312 78.390625 L 74.820312 82.941406 C 74.820312 83.09375 74.851562 83.238281 74.90625 83.378906 C 74.964844 83.515625 75.046875 83.640625 75.15625 83.746094 C 75.261719 83.855469 75.382812 83.9375 75.523438 83.992188 C 75.664062 84.050781 75.808594 84.082031 75.960938 84.082031 C 79.734375 84.082031 82.785156 87.132812 82.785156 90.90625 C 82.785156 94.683594 79.734375 97.734375 75.960938 97.734375 L 72.546875 97.734375 L 72.546875 73.839844 C 72.546875 70.710938 69.984375 68.148438 66.855469 68.148438 Z M 67.992188 70.894531 C 69.261719 71.390625 70.269531 72.386719 70.269531 73.839844 L 70.269531 98.875 C 70.269531 99.023438 70.296875 99.167969 70.355469 99.308594 C 70.414062 99.449219 70.496094 99.570312 70.601562 99.679688 C 70.710938 99.785156 70.832031 99.867188 70.972656 99.925781 C 71.113281 99.984375 71.257812 100.011719 71.40625 100.011719 L 75.960938 100.011719 C 80.96875 100.011719 85.0625 95.917969 85.0625 90.90625 C 85.0625 86.300781 81.550781 82.621094 77.097656 82.035156 L 77.097656 79.757812 C 82.820312 80.355469 87.339844 85.027344 87.339844 90.90625 C 87.339844 97.191406 82.242188 102.289062 75.960938 102.289062 L 67.992188 102.289062 Z M 53.199219 77.253906 C 45.683594 77.253906 39.546875 83.390625 39.546875 90.90625 C 39.546875 98.425781 45.683594 104.5625 53.199219 104.5625 C 53.351562 104.5625 53.496094 104.535156 53.636719 104.476562 C 53.777344 104.417969 53.898438 104.335938 54.003906 104.230469 C 54.113281 104.125 54.195312 104 54.253906 103.859375 C 54.308594 103.722656 54.339844 103.574219 54.339844 103.425781 L 54.339844 98.875 C 54.339844 98.722656 54.308594 98.578125 54.253906 98.4375 C 54.195312 98.296875 54.113281 98.175781 54.003906 98.070312 C 53.898438 97.960938 53.777344 97.878906 53.636719 97.820312 C 53.496094 97.765625 53.351562 97.734375 53.199219 97.734375 C 49.425781 97.734375 46.375 94.683594 46.375 90.90625 C 46.375 87.132812 49.425781 84.082031 53.199219 84.082031 L 56.613281 84.082031 L 56.613281 107.976562 C 56.613281 111.105469 59.175781 113.667969 62.304688 113.667969 C 62.457031 113.667969 62.601562 113.636719 62.738281 113.578125 C 62.878906 113.523438 63.003906 113.441406 63.109375 113.332031 C 63.214844 113.226562 63.296875 113.101562 63.355469 112.964844 C 63.414062 112.824219 63.441406 112.679688 63.441406 112.527344 L 63.441406 78.390625 C 63.441406 78.238281 63.414062 78.09375 63.355469 77.957031 C 63.296875 77.816406 63.214844 77.691406 63.109375 77.585938 C 63.003906 77.480469 62.878906 77.398438 62.738281 77.339844 C 62.601562 77.28125 62.457031 77.253906 62.304688 77.253906 Z M 53.199219 79.527344 L 61.167969 79.527344 L 61.167969 110.921875 C 59.902344 110.425781 58.890625 109.429688 58.890625 107.976562 L 58.890625 82.941406 C 58.890625 82.792969 58.863281 82.644531 58.804688 82.507812 C 58.746094 82.367188 58.664062 82.246094 58.558594 82.136719 C 58.449219 82.03125 58.328125 81.949219 58.1875 81.890625 C 58.046875 81.832031 57.902344 81.804688 57.753906 81.804688 L 53.199219 81.804688 C 48.191406 81.804688 44.097656 85.898438 44.097656 90.90625 C 44.097656 95.515625 47.609375 99.195312 52.0625 99.78125 L 52.0625 102.058594 C 46.339844 101.460938 41.820312 96.789062 41.820312 90.90625 C 41.820312 84.625 46.917969 79.527344 53.199219 79.527344 Z M 82.269531 105.851562 C 82.039062 105.851562 81.828125 105.917969 81.632812 106.046875 C 81.441406 106.175781 81.304688 106.347656 81.21875 106.5625 C 81.128906 106.777344 81.109375 106.996094 81.15625 107.222656 C 81.207031 107.449219 81.3125 107.644531 81.476562 107.804688 L 83.085938 109.414062 C 83.191406 109.523438 83.316406 109.609375 83.457031 109.671875 C 83.597656 109.730469 83.742188 109.761719 83.894531 109.765625 C 84.050781 109.765625 84.195312 109.738281 84.339844 109.679688 C 84.480469 109.621094 84.605469 109.539062 84.710938 109.429688 C 84.820312 109.324219 84.902344 109.199219 84.960938 109.058594 C 85.019531 108.914062 85.046875 108.769531 85.046875 108.613281 C 85.042969 108.460938 85.011719 108.316406 84.953125 108.175781 C 84.890625 108.035156 84.804688 107.910156 84.695312 107.804688 L 83.085938 106.195312 C 82.863281 105.964844 82.589844 105.851562 82.269531 105.851562 Z M 77.789062 109.65625 C 77.691406 109.660156 77.597656 109.679688 77.503906 109.710938 C 77.410156 109.738281 77.320312 109.78125 77.238281 109.835938 C 77.15625 109.890625 77.082031 109.953125 77.015625 110.027344 C 76.949219 110.097656 76.890625 110.179688 76.847656 110.265625 C 76.800781 110.355469 76.765625 110.445312 76.746094 110.542969 C 76.722656 110.636719 76.714844 110.734375 76.71875 110.835938 C 76.722656 110.933594 76.738281 111.027344 76.765625 111.125 C 76.796875 111.21875 76.835938 111.308594 76.886719 111.390625 L 78.058594 113.34375 C 78.136719 113.472656 78.234375 113.585938 78.355469 113.675781 C 78.476562 113.769531 78.613281 113.832031 78.761719 113.871094 C 78.90625 113.910156 79.054688 113.917969 79.207031 113.894531 C 79.359375 113.875 79.5 113.824219 79.628906 113.746094 C 79.757812 113.667969 79.871094 113.566406 79.960938 113.445312 C 80.050781 113.320312 80.113281 113.1875 80.148438 113.039062 C 80.183594 112.890625 80.191406 112.742188 80.167969 112.589844 C 80.144531 112.441406 80.089844 112.300781 80.011719 112.171875 L 78.835938 110.21875 C 78.605469 109.816406 78.253906 109.628906 77.789062 109.65625 Z M 72.636719 112.273438 C 72.457031 112.277344 72.285156 112.320312 72.125 112.402344 C 71.964844 112.488281 71.832031 112.601562 71.726562 112.75 C 71.621094 112.894531 71.554688 113.058594 71.527344 113.234375 C 71.5 113.414062 71.511719 113.589844 71.566406 113.761719 L 72.230469 115.9375 C 72.273438 116.085938 72.34375 116.21875 72.4375 116.335938 C 72.535156 116.457031 72.648438 116.550781 72.785156 116.625 C 72.917969 116.699219 73.0625 116.742188 73.210938 116.757812 C 73.363281 116.773438 73.511719 116.757812 73.660156 116.710938 C 73.804688 116.667969 73.9375 116.597656 74.054688 116.5 C 74.171875 116.402344 74.265625 116.285156 74.335938 116.148438 C 74.40625 116.011719 74.449219 115.871094 74.460938 115.71875 C 74.472656 115.566406 74.457031 115.417969 74.40625 115.269531 L 73.742188 113.09375 C 73.671875 112.851562 73.535156 112.652344 73.328125 112.5 C 73.121094 112.347656 72.890625 112.273438 72.636719 112.273438 Z M 67.003906 113.558594 C 66.964844 113.554688 66.929688 113.558594 66.890625 113.558594 C 66.738281 113.570312 66.597656 113.609375 66.460938 113.675781 C 66.324219 113.742188 66.207031 113.832031 66.109375 113.945312 C 66.011719 114.058594 65.9375 114.1875 65.886719 114.332031 C 65.839844 114.472656 65.820312 114.621094 65.832031 114.769531 L 65.949219 117.042969 C 65.957031 117.195312 65.992188 117.339844 66.058594 117.476562 C 66.125 117.613281 66.210938 117.730469 66.324219 117.832031 C 66.4375 117.933594 66.5625 118.007812 66.707031 118.058594 C 66.847656 118.109375 66.996094 118.128906 67.144531 118.121094 C 67.296875 118.113281 67.441406 118.078125 67.578125 118.011719 C 67.714844 117.949219 67.832031 117.859375 67.933594 117.746094 C 68.035156 117.632812 68.109375 117.507812 68.160156 117.363281 C 68.210938 117.222656 68.230469 117.074219 68.222656 116.925781 L 68.101562 114.652344 C 68.09375 114.355469 67.980469 114.101562 67.769531 113.890625 C 67.558594 113.679688 67.304688 113.566406 67.003906 113.558594 Z M 67.003906 113.558594 " fill-opacity="1" fill-rule="nonzero"/></g><g clip-path="url(#47ab7d8609)"><path fill="#ffffff" d="M 140.449219 89.363281 C 123.496094 89.363281 109.699219 75.570312 109.699219 58.613281 C 109.699219 41.660156 123.496094 27.863281 140.449219 27.863281 C 157.40625 27.863281 171.199219 41.660156 171.199219 58.613281 C 171.199219 75.570312 157.40625 89.363281 140.449219 89.363281 Z M 140.449219 30.425781 C 124.910156 30.425781 112.261719 43.074219 112.261719 58.613281 C 112.261719 74.15625 124.910156 86.800781 140.449219 86.800781 C 155.992188 86.800781 168.636719 74.15625 168.636719 58.613281 C 168.636719 43.074219 155.992188 30.425781 140.449219 30.425781 Z M 140.449219 30.425781 " fill-opacity="1" fill-rule="nonzero"/></g><path fill="#ffffff" d="M 159.0625 65.019531 C 155.195312 65.019531 152.050781 61.863281 152.050781 57.972656 C 152.050781 54.085938 155.195312 50.925781 159.0625 50.925781 C 162.929688 50.925781 166.074219 54.085938 166.074219 57.972656 C 166.074219 61.863281 162.929688 65.019531 159.0625 65.019531 Z M 159.0625 53.488281 C 156.609375 53.488281 154.613281 55.5 154.613281 57.972656 C 154.613281 60.445312 156.609375 62.457031 159.0625 62.457031 C 161.515625 62.457031 163.511719 60.445312 163.511719 57.972656 C 163.511719 55.5 161.515625 53.488281 159.0625 53.488281 Z M 159.0625 53.488281 " fill-opacity="1" fill-rule="nonzero"/><path fill="#ffffff" d="M 116.105469 65.019531 C 115.777344 65.019531 115.453125 64.894531 115.203125 64.648438 C 114.699219 64.148438 114.699219 63.335938 115.199219 62.835938 L 126.660156 51.304688 C 127.160156 50.800781 127.972656 50.804688 128.472656 51.300781 C 128.976562 51.796875 128.976562 52.609375 128.480469 53.113281 L 117.015625 64.644531 C 116.765625 64.894531 116.4375 65.019531 116.105469 65.019531 Z M 116.105469 65.019531 " fill-opacity="1" fill-rule="nonzero"/><path fill="#ffffff" d="M 127.570312 65.019531 C 127.242188 65.019531 126.914062 64.894531 126.664062 64.644531 L 115.199219 53.113281 C 114.699219 52.609375 114.699219 51.796875 115.203125 51.300781 C 115.707031 50.804688 116.515625 50.800781 117.015625 51.304688 L 128.480469 62.835938 C 128.976562 63.335938 128.976562 64.148438 128.472656 64.648438 C 128.226562 64.894531 127.898438 65.019531 127.570312 65.019531 Z M 127.570312 65.019531 " fill-opacity="1" fill-rule="nonzero"/><path fill="#ffffff" d="M 135.730469 65.019531 C 131.863281 65.019531 128.71875 61.863281 128.71875 57.972656 C 128.71875 54.085938 131.863281 50.925781 135.730469 50.925781 C 139.597656 50.925781 142.742188 54.085938 142.742188 57.972656 C 142.742188 58.683594 142.167969 59.253906 141.460938 59.253906 L 131.464844 59.253906 C 132.011719 61.105469 133.71875 62.457031 135.730469 62.457031 C 136.835938 62.457031 138.449219 62.246094 139.707031 60.394531 C 140.109375 59.804688 140.910156 59.664062 141.484375 60.054688 C 142.074219 60.449219 142.222656 61.25 141.824219 61.832031 C 140.390625 63.949219 138.339844 65.019531 135.730469 65.019531 Z M 131.464844 56.691406 L 139.996094 56.691406 C 139.445312 54.84375 137.742188 53.488281 135.730469 53.488281 C 133.71875 53.488281 132.011719 54.84375 131.464844 56.691406 Z M 131.464844 56.691406 " fill-opacity="1" fill-rule="nonzero"/><path fill="#ffffff" d="M 146.890625 65.019531 C 146.183594 65.019531 145.609375 64.449219 145.609375 63.738281 L 145.609375 52.207031 C 145.609375 51.5 146.183594 50.925781 146.890625 50.925781 C 147.597656 50.925781 148.171875 51.5 148.171875 52.207031 L 148.171875 63.738281 C 148.171875 64.449219 147.597656 65.019531 146.890625 65.019531 Z M 146.890625 65.019531 " fill-opacity="1" fill-rule="nonzero"/><path fill="#ffffff" d="M 146.890625 56.949219 C 146.183594 56.949219 145.609375 56.375 145.609375 55.667969 C 145.609375 53.269531 147.90625 51.003906 150.332031 51.003906 C 151.039062 51.003906 151.613281 51.578125 151.613281 52.285156 C 151.613281 52.992188 151.039062 53.566406 150.332031 53.566406 C 149.238281 53.566406 148.171875 54.769531 148.171875 55.667969 C 148.171875 56.375 147.597656 56.949219 146.890625 56.949219 Z M 146.890625 56.949219 " fill-opacity="1" fill-rule="nonzero"/><path fill="#ffffff" d="M 159.0625 60.410156 C 157.726562 60.410156 156.636719 59.316406 156.636719 57.972656 C 156.636719 56.632812 157.726562 55.539062 159.0625 55.539062 C 160.398438 55.539062 161.492188 56.632812 161.492188 57.972656 C 161.492188 59.316406 160.398438 60.410156 159.0625 60.410156 Z M 158.929688 57.972656 C 158.929688 58.046875 158.984375 58.101562 159.0625 58.101562 Z M 158.929688 57.972656 " fill-opacity="1" fill-rule="nonzero"/></svg>